<?xml version="1.0" encoding="UTF-8"?>
<svg width="700pt" height="700pt" version="1.1" viewBox="0 0 700 700" xmlns="http://www.w3.org/2000/svg" xmlns:xlink="http://www.w3.org/1999/xlink">
 <defs>
  <symbol id="v" overflow="visible">
   <path d="m20.844-1.25c-1.0742 0.5625-2.1953 0.98438-3.3594 1.2656-1.168 0.28125-2.3828 0.42188-3.6406 0.42188-3.7812 0-6.7773-1.0508-8.9844-3.1562-2.2109-2.1133-3.3125-4.9766-3.3125-8.5938 0-3.625 1.1016-6.4922 3.3125-8.6094 2.207-2.1133 5.2031-3.1719 8.9844-3.1719 1.2578 0 2.4727 0.14844 3.6406 0.4375 1.1641 0.28125 2.2852 0.69922 3.3594 1.25v4.7031c-1.0859-0.73828-2.1523-1.2812-3.2031-1.625-1.0547-0.34375-2.1641-0.51562-3.3281-0.51562-2.0859 0-3.7266 0.66797-4.9219 2-1.1992 1.3359-1.7969 3.1797-1.7969 5.5312 0 2.3359 0.59766 4.1719 1.7969 5.5156 1.1953 1.3359 2.8359 2 4.9219 2 1.1641 0 2.2734-0.17188 3.3281-0.51562 1.0508-0.34375 2.1172-0.88281 3.2031-1.625z"/>
  </symbol>
  <symbol id="d" overflow="visible">
   <path d="m15.25-12.375c-0.48047-0.22656-0.95312-0.39453-1.4219-0.5-0.46875-0.10156-0.94531-0.15625-1.4219-0.15625-1.3984 0-2.4766 0.44922-3.2344 1.3438-0.75 0.89844-1.125 2.1797-1.125 3.8438v7.8438h-5.4375v-17.016h5.4375v2.7969c0.69531-1.1133 1.5-1.9258 2.4062-2.4375 0.90625-0.50781 1.9922-0.76562 3.2656-0.76562 0.17578 0 0.36719 0.011719 0.57812 0.03125 0.21875 0.011719 0.53125 0.042969 0.9375 0.09375z"/>
  </symbol>
  <symbol id="a" overflow="visible">
   <path d="m19.594-8.5469v1.5469h-12.719c0.13281 1.2734 0.59766 2.2305 1.3906 2.875 0.78906 0.63672 1.8945 0.95312 3.3125 0.95312 1.1445 0 2.3164-0.16406 3.5156-0.5 1.1953-0.34375 2.4297-0.85938 3.7031-1.5469v4.1875c-1.293 0.49219-2.5859 0.85547-3.875 1.0938-1.2812 0.25-2.5625 0.375-3.8438 0.375-3.0859 0-5.4805-0.78125-7.1875-2.3438-1.6992-1.5625-2.5469-3.7539-2.5469-6.5781 0-2.7812 0.83203-4.9609 2.5-6.5469 1.6758-1.5938 3.9844-2.3906 6.9219-2.3906 2.6758 0 4.8164 0.80859 6.4219 2.4219 1.6016 1.6055 2.4062 3.7578 2.4062 6.4531zm-5.5938-1.8125c0-1.0312-0.30469-1.8633-0.90625-2.5-0.59375-0.63281-1.3828-0.95312-2.3594-0.95312-1.0547 0-1.9062 0.29688-2.5625 0.89062s-1.0703 1.4492-1.2344 2.5625z"/>
  </symbol>
  <symbol id="c" overflow="visible">
   <path d="m10.234-7.6562c-1.1367 0-1.9922 0.19531-2.5625 0.57812-0.5625 0.38672-0.84375 0.95312-0.84375 1.7031 0 0.6875 0.22656 1.2305 0.6875 1.625 0.45703 0.38672 1.0977 0.57812 1.9219 0.57812 1.0195 0 1.8789-0.36328 2.5781-1.0938 0.69531-0.73828 1.0469-1.6602 1.0469-2.7656v-0.625zm8.3125-2.0469v9.7031h-5.4844v-2.5156c-0.73047 1.0312-1.5547 1.7812-2.4688 2.25-0.90625 0.46875-2.0117 0.70312-3.3125 0.70312-1.7617 0-3.1953-0.50781-4.2969-1.5312-1.0938-1.0312-1.6406-2.3672-1.6406-4.0156 0-1.9883 0.67969-3.4453 2.0469-4.375 1.375-0.9375 3.5312-1.4062 6.4688-1.4062h3.2031v-0.42188c0-0.86328-0.33984-1.4922-1.0156-1.8906-0.67969-0.40625-1.7344-0.60938-3.1719-0.60938-1.168 0-2.2578 0.12109-3.2656 0.35938-1 0.23047-1.9297 0.57812-2.7812 1.0469v-4.1562c1.1641-0.28125 2.332-0.49219 3.5-0.64062 1.1758-0.14453 2.3516-0.21875 3.5312-0.21875 3.0703 0 5.2852 0.60547 6.6406 1.8125 1.3633 1.2109 2.0469 3.1797 2.0469 5.9062z"/>
  </symbol>
  <symbol id="b" overflow="visible">
   <path d="m8.5469-21.844v4.8281h5.6094v3.8906h-5.6094v7.2188c0 0.79297 0.15625 1.3281 0.46875 1.6094 0.32031 0.27344 0.94531 0.40625 1.875 0.40625h2.7969v3.8906h-4.6719c-2.1484 0-3.668-0.44531-4.5625-1.3438-0.89844-0.89453-1.3438-2.4141-1.3438-4.5625v-7.2188h-2.7031v-3.8906h2.7031v-4.8281z"/>
  </symbol>
  <symbol id="f" overflow="visible">
   <path d="m14.188-14.516v-9.125h5.4688v23.641h-5.4688v-2.4531c-0.75 1-1.5781 1.7344-2.4844 2.2031-0.89844 0.45703-1.9375 0.6875-3.125 0.6875-2.0938 0-3.8203-0.83203-5.1719-2.5-1.3438-1.6641-2.0156-3.8047-2.0156-6.4219 0-2.625 0.67188-4.7695 2.0156-6.4375 1.3516-1.6641 3.0781-2.5 5.1719-2.5 1.1758 0 2.2188 0.23438 3.125 0.70312s1.7344 1.2031 2.4844 2.2031zm-3.5781 11c1.1562 0 2.0391-0.42188 2.6562-1.2656 0.61328-0.85156 0.92188-2.0859 0.92188-3.7031 0-1.625-0.30859-2.8594-0.92188-3.7031-0.61719-0.85156-1.5-1.2812-2.6562-1.2812s-2.043 0.42969-2.6562 1.2812c-0.61719 0.84375-0.92188 2.0781-0.92188 3.7031 0 1.6172 0.30469 2.8516 0.92188 3.7031 0.61328 0.84375 1.5 1.2656 2.6562 1.2656z"/>
  </symbol>
  <symbol id="k" overflow="visible">
   <path d="m11.672-3.5156c1.1562 0 2.0391-0.42188 2.6562-1.2656 0.61328-0.85156 0.92188-2.0859 0.92188-3.7031 0-1.625-0.30859-2.8594-0.92188-3.7031-0.61719-0.85156-1.5-1.2812-2.6562-1.2812-1.168 0-2.0625 0.42969-2.6875 1.2812-0.625 0.85547-0.9375 2.0898-0.9375 3.7031 0 1.6055 0.3125 2.8359 0.9375 3.6875 0.625 0.85547 1.5195 1.2812 2.6875 1.2812zm-3.625-11c0.75-1 1.5781-1.7344 2.4844-2.2031 0.91406-0.46875 1.9688-0.70312 3.1562-0.70312 2.0938 0 3.8125 0.83594 5.1562 2.5 1.3516 1.668 2.0312 3.8125 2.0312 6.4375 0 2.6172-0.67969 4.7578-2.0312 6.4219-1.3438 1.668-3.0625 2.5-5.1562 2.5-1.1875 0-2.2422-0.23438-3.1562-0.70312-0.90625-0.46875-1.7344-1.1953-2.4844-2.1875v2.4531h-5.4375v-23.641h5.4375z"/>
  </symbol>
  <symbol id="j" overflow="visible">
   <path d="m0.375-17.016h5.4375l4.5781 11.547 3.8906-11.547h5.4375l-7.1562 18.625c-0.71875 1.8945-1.5586 3.2188-2.5156 3.9688-0.96094 0.75781-2.2188 1.1406-3.7812 1.1406h-3.1562v-3.5781h1.7031c0.92578 0 1.5977-0.14844 2.0156-0.4375 0.41406-0.29297 0.74219-0.82031 0.98438-1.5781l0.14062-0.46875z"/>
  </symbol>
  <symbol id="i" overflow="visible">
   <path d="m2.8594-22.672h5.8438v8.2656l8.4375-8.2656h6.7812l-10.922 10.734 12.047 11.938h-7.3125l-9.0312-8.9375v8.9375h-5.8438z"/>
  </symbol>
  <symbol id="u" overflow="visible">
   <path d="m2.8594-22.672h7.4375l5.1719 12.125 5.1875-12.125h7.4375v22.672h-5.5312v-16.594l-5.2344 12.234h-3.7031l-5.2188-12.234v16.594h-5.5469z"/>
  </symbol>
  <symbol id="t" overflow="visible">
   <path d="m2.6094-23.641h5.4375v23.641h-5.4375z"/>
  </symbol>
  <symbol id="h" overflow="visible">
   <path d="m2.6094-17.016h5.4375v16.719c0 2.2695-0.54688 4.0039-1.6406 5.2031-1.0938 1.207-2.6797 1.8125-4.75 1.8125h-2.6875v-3.5781h0.9375c1.0312 0 1.7383-0.23438 2.125-0.70312 0.38281-0.46094 0.57812-1.3711 0.57812-2.7344zm0-6.625h5.4375v4.4375h-5.4375z"/>
  </symbol>
  <symbol id="s" overflow="visible">
   <path d="m2.6094-17.016h5.4375v17.016h-5.4375zm0-6.625h5.4375v4.4375h-5.4375z"/>
  </symbol>
  <symbol id="g" overflow="visible">
   <path d="m19.719-10.359v10.359h-5.4688v-7.9219c0-1.4688-0.039062-2.4766-0.10938-3.0312-0.0625-0.5625-0.17188-0.97656-0.32812-1.25-0.21875-0.35156-0.51172-0.62891-0.875-0.82812-0.36719-0.19531-0.77734-0.29688-1.2344-0.29688-1.1367 0-2.0312 0.44531-2.6875 1.3281-0.64844 0.875-0.96875 2.0859-0.96875 3.625v8.375h-5.4375v-17.016h5.4375v2.5c0.82031-1 1.6914-1.7344 2.6094-2.2031 0.92578-0.46875 1.9453-0.70312 3.0625-0.70312 1.957 0 3.4453 0.60547 4.4688 1.8125 1.0195 1.1992 1.5312 2.9492 1.5312 5.25z"/>
  </symbol>
  <symbol id="r" overflow="visible">
   <path d="m13.812-23.641v3.5781h-3.0156c-0.77344 0-1.3086 0.14062-1.6094 0.42188-0.30469 0.27344-0.45312 0.75-0.45312 1.4375v1.1875h4.6406v3.8906h-4.6406v13.125h-5.4375v-13.125h-2.7031v-3.8906h2.7031v-1.1875c0-1.8516 0.51562-3.2227 1.5469-4.1094 1.0312-0.88281 2.6289-1.3281 4.7969-1.3281z"/>
  </symbol>
  <symbol id="e" overflow="visible">
   <path d="m10.703-13.531c-1.1992 0-2.1172 0.43359-2.75 1.2969-0.63672 0.86719-0.95312 2.1172-0.95312 3.75 0 1.625 0.31641 2.8711 0.95312 3.7344 0.63281 0.86719 1.5508 1.2969 2.75 1.2969 1.1875 0 2.0938-0.42969 2.7188-1.2969 0.63281-0.86328 0.95312-2.1094 0.95312-3.7344 0-1.6328-0.32031-2.8828-0.95312-3.75-0.625-0.86328-1.5312-1.2969-2.7188-1.2969zm0-3.8906c2.9258 0 5.2109 0.79297 6.8594 2.375 1.6445 1.5742 2.4688 3.7617 2.4688 6.5625 0 2.793-0.82422 4.9805-2.4688 6.5625-1.6484 1.5742-3.9336 2.3594-6.8594 2.3594-2.9375 0-5.2344-0.78516-6.8906-2.3594-1.6484-1.582-2.4688-3.7695-2.4688-6.5625 0-2.8008 0.82031-4.9883 2.4688-6.5625 1.6562-1.582 3.9531-2.375 6.8906-2.375z"/>
  </symbol>
  <symbol id="q" overflow="visible">
   <path d="m18.375-14.188c0.6875-1.0508 1.5039-1.8516 2.4531-2.4062 0.94531-0.55078 1.9883-0.82812 3.125-0.82812 1.957 0 3.4453 0.60547 4.4688 1.8125 1.0195 1.1992 1.5312 2.9492 1.5312 5.25v10.359h-5.4688v-8.875c0.007813-0.125 0.015625-0.25781 0.015625-0.40625 0.007812-0.14453 0.015625-0.34766 0.015625-0.60938 0-1.207-0.17969-2.082-0.53125-2.625-0.35547-0.53906-0.92969-0.8125-1.7188-0.8125-1.0312 0-1.8281 0.42969-2.3906 1.2812-0.5625 0.85547-0.85547 2.0859-0.875 3.6875v8.3594h-5.4688v-8.875c0-1.8828-0.16406-3.0977-0.48438-3.6406-0.32422-0.53906-0.90234-0.8125-1.7344-0.8125-1.043 0-1.8516 0.43359-2.4219 1.2969-0.5625 0.85547-0.84375 2.0742-0.84375 3.6562v8.375h-5.4688v-17.016h5.4688v2.5c0.66406-0.96875 1.4297-1.6914 2.2969-2.1719 0.875-0.48828 1.832-0.73438 2.875-0.73438 1.1758 0 2.2109 0.28906 3.1094 0.85938 0.90625 0.5625 1.5859 1.3555 2.0469 2.375z"/>
  </symbol>
  <symbol id="p" overflow="visible">
   <path d="m19.719-10.359v10.359h-5.4688v-7.9062c0-1.4766-0.039062-2.4922-0.10938-3.0469-0.0625-0.5625-0.17188-0.97656-0.32812-1.25-0.21875-0.35156-0.51172-0.62891-0.875-0.82812-0.36719-0.19531-0.77734-0.29688-1.2344-0.29688-1.1367 0-2.0312 0.44531-2.6875 1.3281-0.64844 0.875-0.96875 2.0859-0.96875 3.625v8.375h-5.4375v-23.641h5.4375v9.125c0.82031-1 1.6914-1.7344 2.6094-2.2031 0.92578-0.46875 1.9453-0.70312 3.0625-0.70312 1.957 0 3.4453 0.60547 4.4688 1.8125 1.0195 1.1992 1.5312 2.9492 1.5312 5.25z"/>
  </symbol>
  <symbol id="o" overflow="visible">
   <path d="m2.8594-22.672h6.5312l8.25 15.547v-15.547h5.5469v22.672h-6.5469l-8.2344-15.562v15.562h-5.5469z"/>
  </symbol>
  <symbol id="n" overflow="visible">
   <path d="m2.4375-6.625v-10.391h5.4688v1.7031c0 0.92969-0.007812 2.0898-0.015625 3.4844-0.011719 1.3867-0.015625 2.3125-0.015625 2.7812 0 1.3672 0.03125 2.3516 0.09375 2.9531 0.070312 0.60547 0.19531 1.043 0.375 1.3125 0.21875 0.35547 0.50391 0.63281 0.85938 0.82812 0.36328 0.1875 0.78125 0.28125 1.25 0.28125 1.1328 0 2.0234-0.42969 2.6719-1.2969 0.64453-0.875 0.96875-2.0859 0.96875-3.6406v-8.4062h5.4375v17.016h-5.4375v-2.4531c-0.82422 0.99219-1.6953 1.7188-2.6094 2.1875-0.91797 0.46875-1.9297 0.70312-3.0312 0.70312-1.9609 0-3.4531-0.59766-4.4844-1.7969-1.0234-1.207-1.5312-2.9609-1.5312-5.2656z"/>
  </symbol>
  <symbol id="m" overflow="visible">
   <path d="m2.8594-22.672h9.7031c2.8828 0 5.0977 0.64062 6.6406 1.9219 1.5508 1.2812 2.3281 3.1055 2.3281 5.4688 0 2.375-0.77734 4.2031-2.3281 5.4844-1.543 1.2812-3.7578 1.9219-6.6406 1.9219h-3.8594v7.875h-5.8438zm5.8438 4.2344v6.3281h3.2344c1.1328 0 2.0078-0.27344 2.625-0.82812 0.625-0.55078 0.9375-1.332 0.9375-2.3438 0-1.0078-0.3125-1.7852-0.9375-2.3281-0.61719-0.55078-1.4922-0.82812-2.625-0.82812z"/>
  </symbol>
  <symbol id="l" overflow="visible">
   <path d="m16.359-16.484v4.4375c-0.74219-0.50781-1.4844-0.88281-2.2344-1.125-0.74219-0.23828-1.5117-0.35938-2.3125-0.35938-1.5117 0-2.6953 0.44531-3.5469 1.3281-0.84375 0.88672-1.2656 2.125-1.2656 3.7188 0 1.5859 0.42188 2.8203 1.2656 3.7031 0.85156 0.88672 2.0352 1.3281 3.5469 1.3281 0.85156 0 1.6602-0.125 2.4219-0.375 0.76953-0.25 1.4766-0.625 2.125-1.125v4.4531c-0.85547 0.3125-1.7188 0.54688-2.5938 0.70312s-1.75 0.23438-2.625 0.23438c-3.0742 0-5.4766-0.78516-7.2031-2.3594-1.7305-1.5703-2.5938-3.7578-2.5938-6.5625 0-2.8125 0.86328-5.0039 2.5938-6.5781 1.7266-1.5703 4.1289-2.3594 7.2031-2.3594 0.88281 0 1.7578 0.078125 2.625 0.23438 0.86328 0.15625 1.7266 0.39062 2.5938 0.70312z"/>
  </symbol>
 </defs>
 <g>
  <path d="m437.11 435.93c-5.7227 9.582-9.457 16.301-13.625 22.711-10.891 16.738-18.668 17.234-31.734 2.2383l-11.883-13.375c-4.293 4.8516-7.7773 8.6484-11.012 12.445s-7.0312 9.7695-11.262 13.875c-9.7695 9.582-18.23 8.2773-23.832-3.9805-3.7344-8.0898-6.2227-16.738-9.0234-24.891-6.5938-3.4219-9.8945 1.6797-14.062 4.8516-8.1016 7.0156-16.711 13.422-25.762 19.164-14.496 8.0898-21.84 3.9219-25.387-12.445-3.1719-14.375-6.5938-28.684-10.391-45.109-5.3516 3.5469-8.2148 5.2266-10.828 7.2188-10.828 8.3359-17.172 6.2227-18.668-7.8398-1.2461-10.078-1.0586-20.285-1.3672-30.426v-15.121l-8.5234 1.8633c-11.324 1.9297-14.621 0-14.559-11.012 0.0625-11.012 0.93359-22.711 2.0547-33.973 2.9883-31.484 6.2227-62.969 9.582-94.453 0.09375-3.5742 0.85156-7.0977 2.2383-10.391 1.4844-2.3555 4.0039-3.8594 6.7812-4.0469 2.7891 0.53125 5.125 2.4258 6.2227 5.043 0.36328 4.7344 0.15234 9.4961-0.62109 14.184-2.9258 31.484-6.2227 63.031-8.8359 94.516-0.375 4.1055 0 8.2773 0 13.316 2.7383 0.4375 4.8516 0.93359 6.9688 0.99609 12.445 0.55859 13.75 1.4297 14.188 12.816 0.49609 13.688 0 27.379 0.375 42.621 24.328-4.6055 29.68 13.004 34.719 30.738 2.6133 9.0859 4.8516 18.293 7.7148 29.121 4.0547-1.6875 7.9297-3.7695 11.574-6.2227 7.8398-6.2227 15.184-13.504 22.898-20.16 12.008-10.328 21.406-8.4609 27.504 5.6016 3.0508 7.0938 5.3516 14.438 8.7109 23.645 4.043-3.4219 7.6523-6.2227 10.703-9.1484 4.6055-4.668 8.3984-10.203 13.316-14.496h-0.003906c2.6133-3.0273 6.4453-4.7266 10.445-4.6289 4 0.09375 7.7461 1.9766 10.211 5.125 4.6055 4.9141 8.9258 10.09 12.941 15.496 7.3438-2.0547 9.1484-8.7734 12.445-13.938 13.688-20.594 18.043-21.344 37.707-6.2227 0.80859 0.62109 2.2383 0.4375 5.1641 0.93359 2.0547-12.133 4.2305-24.266 6.2227-36.461v-0.003906c8.168-51.973 12.781-104.45 13.812-157.05 0.375-20.098 5.2266-40.07 6.8438-60.23 1.7617-22.023 2.2812-44.125 1.5586-66.207-13.066 10.891-16.055 26.941-23.645 40.383-7.5938 13.441-14.312 27.441-21.656 41.75-3.0703-0.12891-6.1172-0.60938-9.082-1.4297-31.109-13.004-63.902-14.934-96.508-18.23-13.691-0.44531-27.398 0.13672-41.004 1.7422-21.465 1.0586-26.816-2.1172-35.777-22.09-4.6055-10.266-8.5859-20.719-13.688-33.039-6.7188 9.6445-6.2227 19.414-8.0898 28.312-2.4258 11.699-3.6094 23.645-5.4766 35.406v-0.003906c-0.26562 3.5586-1.2383 7.0273-2.8633 10.203-1.7344 2.293-4.4688 3.6133-7.3398 3.5469-2.7148-1.0273-4.7109-3.3789-5.2891-6.2227-0.43359-4.7617-0.16016-9.5625 0.80859-14.246 4.293-24.078 8.7734-48.16 13.254-72.238v-0.003906c0.39062-2.9492 1.0977-5.8477 2.1133-8.6484 2.6758-6.2227 7.9648-8.0273 12.879-3.6094 4.1055 4.1797 7.3047 9.1562 9.3984 14.625 5.0391 11.449 8.8984 23.457 13.75 34.969 8.2773 19.477 9.1484 19.102 31.109 19.664 28 0.74609 56 2.3633 84 4.6055v-0.003906c11.273 1.2266 22.402 3.5391 33.227 6.9062 9.3945 2.6758 16.238 1.3672 20.844-7.9023 9.582-19.207 19.289-38.352 29.121-57.43 3.2773-7.0547 7.2812-13.75 11.949-19.973 3.0547-3.4531 7.5352-5.2891 12.133-4.9805 4.1484 1.7969 7.1484 5.5195 8.0273 9.957 2.8867 18.832 4.1328 37.883 3.7305 56.934-5.2266 74.418-11.449 148.77-18.668 223.07h0.003906c-2.7852 23.711-6.793 47.262-12.012 70.559-1.0586 5.1641-4.9766 12.445-8.9609 13.504-3.9805 1.0586-9.8945-4.418-14.188-7.9023h0.003906c-4.8398-4.6797-9.3906-9.6445-13.629-14.871z"/>
  <path d="m296.8 377c-26.32-7.8398-26.32-8.0273-21.406-36.773 2.9258-17.051 5.3516-34.223 8.3359-51.27 2.9883-17.051 6.2227-20.16 23.895-18.168 8.8984 0.99609 17.547 3.1094 26.195-1.4922v-0.003906c2.7891-1.0938 5.832-1.375 8.7734-0.80859 14.809 1.8047 29.68 3.3594 44.301 6.2227 16.488 3.0508 19.227 8.1523 17.051 24.891-2.3008 17.797-3.7344 35.652-6.2227 53.387-1.3672 10.078-3.3594 20.035-15.367 24.078-2.9258 0.99609-4.9766 6.2227-6.2227 9.457-9.0234 20.594-13.875 23.707-36.711 23.086h-10.766c-22.215-1.3672-29.43-9.207-30.18-27.562l0.003907-0.003906c-0.30859-1.75-0.875-3.4492-1.6797-5.0391zm94.078-84.559c-16.301-10.328-27.688 0.80859-39.945 4.9141-1.2461 0.4375-2.3008 2.8633-2.4883 4.4805-2.2383 18.668-4.3555 37.332-6.7188 58.055 10.078 0.55859 17.547 1.1211 24.891 1.4297h-0.003907c3.9141 0.49609 7.8516-0.69141 10.84-3.2656 2.9883-2.5742 4.7461-6.293 4.8398-10.238 2.9883-18.043 5.6641-36.148 8.5859-55.375zm-66.141 74.105c2.3633-22.277 4.2305-41.75 6.5938-61.102 1.2148-6.0703-1.9727-12.16-7.6523-14.621-6.9141-2.8867-13.973-5.3984-21.156-7.5312-6.3594 24.98-10.379 50.5-12.008 76.223zm-9.7695 13.75c0.74609 13.562 2.3633 15.367 14.559 16.18 21.652 1.4297 27.316-2.2383 31.109-21.965z"/>
  <path d="m422.93 246.28c0.30859 2.9258-0.58984 5.8555-2.4961 8.0977-1.9062 2.2461-4.6445 3.6133-7.5859 3.7852-6.0898-0.71094-10.598-6.0078-10.328-12.133 0.26953-6.1445 5.3633-10.961 11.512-10.891 5.4141 0.125 8.8359 4.418 8.8984 11.141z"/>
  <path d="m304.7 233.83c0.30859 2.9258-0.58984 5.8555-2.4961 8.1016-1.9023 2.2422-4.6445 3.6094-7.5859 3.7812-6.0898-0.71094-10.598-6.0078-10.328-12.133 0.26953-6.1406 5.3633-10.961 11.512-10.891 5.4141 0.125 8.8359 4.418 8.8984 11.141z"/>
  <use x="70" y="653.332031" xlink:href="#v"/>
  <use x="92.832031" y="653.332031" xlink:href="#d"/>
  <use x="108.175781" y="653.332031" xlink:href="#a"/>
  <use x="129.273437" y="653.332031" xlink:href="#c"/>
  <use x="150.269531" y="653.332031" xlink:href="#b"/>
  <use x="165.140625" y="653.332031" xlink:href="#a"/>
  <use x="186.242188" y="653.332031" xlink:href="#f"/>
  <use x="219.34375" y="653.332031" xlink:href="#k"/>
  <use x="241.613281" y="653.332031" xlink:href="#j"/>
  <use x="272.722656" y="653.332031" xlink:href="#i"/>
  <use x="296.832031" y="653.332031" xlink:href="#c"/>
  <use x="317.824219" y="653.332031" xlink:href="#b"/>
  <use x="332.699219" y="653.332031" xlink:href="#a"/>
  <use x="364.628906" y="653.332031" xlink:href="#u"/>
  <use x="395.589844" y="653.332031" xlink:href="#c"/>
  <use x="416.582031" y="653.332031" xlink:href="#t"/>
  <use x="427.246094" y="653.332031" xlink:href="#f"/>
  <use x="449.515625" y="653.332031" xlink:href="#h"/>
  <use x="460.179687" y="653.332031" xlink:href="#s"/>
  <use x="470.84375" y="653.332031" xlink:href="#c"/>
  <use x="491.839844" y="653.332031" xlink:href="#g"/>
  <use x="70" y="684.445312" xlink:href="#r"/>
  <use x="83.535156" y="684.445312" xlink:href="#d"/>
  <use x="98.878906" y="684.445312" xlink:href="#e"/>
  <use x="120.25" y="684.445312" xlink:href="#q"/>
  <use x="163.5" y="684.445312" xlink:href="#b"/>
  <use x="178.371094" y="684.445312" xlink:href="#p"/>
  <use x="200.519531" y="684.445312" xlink:href="#a"/>
  <use x="232.453125" y="684.445312" xlink:href="#o"/>
  <use x="258.488281" y="684.445312" xlink:href="#e"/>
  <use x="279.863281" y="684.445312" xlink:href="#n"/>
  <use x="302.011719" y="684.445312" xlink:href="#g"/>
  <use x="334.992188" y="684.445312" xlink:href="#m"/>
  <use x="357.792969" y="684.445312" xlink:href="#d"/>
  <use x="373.136719" y="684.445312" xlink:href="#e"/>
  <use x="394.507812" y="684.445312" xlink:href="#h"/>
  <use x="405.171875" y="684.445312" xlink:href="#a"/>
  <use x="426.273437" y="684.445312" xlink:href="#l"/>
  <use x="444.714844" y="684.445312" xlink:href="#b"/>
 </g>
</svg>
